<?xml version="1.0" encoding="iso-8859-1"?>
<svg xmlns="http://www.w3.org/2000/svg" xml:space="preserve" style="enable-background:new 0 0 64 64" viewBox="0 0 64 64">
  <path fill="#fff" d="M32 23c-4.971 0-9 4.029-9 9s4.029 9 9 9 9-4.029 9-9-4.029-9-9-9z"/>
  <path fill="#fff" d="M42.415 7H21.581C13.542 7 7 13.544 7 21.585v20.833C7 50.458 13.544 57 21.585 57h20.833C50.458 57 57 50.456 57 42.415V21.581C57 13.542 50.456 7 42.415 7zM32 45c-7.17 0-13-5.831-13-13s5.83-13 13-13 13 5.83 13 13-5.831 13-13 13zm15-26a2 2 0 1 1 .001-4.001A2 2 0 0 1 47 19z"/>
</svg>