<svg width="95" height="95" fill="none" xmlns="http://www.w3.org/2000/svg"><path d="M47.5 95C73.734 95 95 73.734 95 47.5 95 21.267 73.734 0 47.5 0 21.267 0 0 21.267 0 47.5 0 73.734 21.267 95 47.5 95z" fill="#fff"/><path d="M45.719 61.62c-2.282 2.208-4.527 4.398-6.773 6.587-.779.76-1.65 1.188-2.783 1.132-.76-.037-1.187-.371-1.428-1.095-1.707-5.306-3.452-10.613-5.159-15.938-.167-.52-.408-.761-.927-.928a908.926 908.926 0 01-12.08-3.767c-.612-.204-1.243-.445-1.78-.816-.836-.557-.947-1.466-.205-2.134a7.973 7.973 0 012.357-1.466c4.935-1.948 9.89-3.84 14.843-5.752 12.562-4.842 25.123-9.704 37.685-14.546 2.394-.928 4.23.37 3.97 2.968-.166 1.652-.593 3.285-.927 4.917-2.728 12.877-5.455 25.773-8.201 38.65-.65 3.061-2.802 3.86-5.307 2.004a5497.906 5497.906 0 01-12.636-9.333 9.857 9.857 0 00-.65-.483zm-9.463 3.915c.056-.018.093-.018.148-.037.019-.13.056-.241.075-.352.278-2.913.556-5.845.797-8.758.056-.65.279-1.113.761-1.559 3.878-3.47 7.756-6.976 11.616-10.465 4.286-3.859 8.572-7.718 12.84-11.596.26-.242.37-.65.556-.984-.408-.037-.835-.204-1.206-.111-.501.13-.965.427-1.41.705-9.445 5.956-18.907 11.912-28.352 17.868-.538.334-.63.612-.427 1.206.705 2.004 1.336 4.027 1.986 6.05.872 2.67 1.744 5.361 2.616 8.033z" fill="#5E5372"/></svg>