<svg xmlns="http://www.w3.org/2000/svg" data-name="Layer 1" viewBox="0 0 122.88 121">
  <path d="M11.52 6.67h99.84a11.57 11.57 0 0 1 11.52 11.52v26.75H0V18.19A11.56 11.56 0 0 1 11.52 6.67Zm24.79 9.75A9.31 9.31 0 1 1 27 25.73a9.31 9.31 0 0 1 9.31-9.31Zm49.79 0a9.31 9.31 0 1 1-9.31 9.31 9.31 9.31 0 0 1 9.31-9.31Z" style="fill-rule:evenodd;fill:#ef4136"/>
  <path d="M111.36 121H11.52A11.57 11.57 0 0 1 0 109.48V40h122.88v69.46A11.56 11.56 0 0 1 111.36 121Z" style="fill:gray"/>
  <path d="M12.75 117.31h97.38a9.1 9.1 0 0 0 9.06-9.06V40H3.69v68.23a9.09 9.09 0 0 0 9.06 9.06Z" style="fill:#fff;fill-rule:evenodd"/>
  <path d="M86.1 14.63a11.11 11.11 0 1 1-7.85 3.26l.11-.1a11.06 11.06 0 0 1 7.74-3.16Zm0 1.79a9.31 9.31 0 1 1-9.31 9.31 9.31 9.31 0 0 1 9.31-9.31Zm-49.79-1.79a11.11 11.11 0 1 1-7.85 3.26l.11-.1a11.08 11.08 0 0 1 7.74-3.16Zm0 1.79A9.31 9.31 0 1 1 27 25.73a9.31 9.31 0 0 1 9.31-9.31Z" style="fill:#c72b20;fill-rule:evenodd"/>
  <path d="M80.54 4.56C80.54 2 83 0 86.1 0s5.56 2 5.56 4.56v21.21c0 2.51-2.48 4.56-5.56 4.56s-5.56-2-5.56-4.56V4.56Zm-49.79 0C30.75 2 33.24 0 36.31 0s5.56 2 5.56 4.56v21.21c0 2.51-2.48 4.56-5.56 4.56s-5.56-2-5.56-4.56V4.56Z" style="fill:#1a1a1a"/>
  <path d="M22 85.62h14a1.79 1.79 0 0 1 1.79 1.79v11.7A1.8 1.8 0 0 1 36 100.9H22a1.8 1.8 0 0 1-1.8-1.79v-11.7a1.8 1.8 0 0 1 1.8-1.79Zm32.58 0h14.06a1.79 1.79 0 0 1 1.79 1.79v11.7a1.8 1.8 0 0 1-1.79 1.79H54.58a1.8 1.8 0 0 1-1.79-1.79v-11.7a1.8 1.8 0 0 1 1.79-1.79Zm32.29 0h14.06a1.8 1.8 0 0 1 1.79 1.79v11.7a1.8 1.8 0 0 1-1.79 1.79H86.87a1.8 1.8 0 0 1-1.79-1.79v-11.7a1.79 1.79 0 0 1 1.79-1.79ZM22 56.42h14a1.8 1.8 0 0 1 1.79 1.8v11.69A1.8 1.8 0 0 1 36 71.7H22a1.8 1.8 0 0 1-1.8-1.79V58.22a1.81 1.81 0 0 1 1.8-1.8Zm32.58 0h14.06a1.8 1.8 0 0 1 1.79 1.8v11.69a1.8 1.8 0 0 1-1.79 1.79H54.58a1.79 1.79 0 0 1-1.79-1.79V58.22a1.8 1.8 0 0 1 1.79-1.8Zm32.29 0h14.06a1.8 1.8 0 0 1 1.79 1.8v11.69a1.8 1.8 0 0 1-1.79 1.79H86.87a1.79 1.79 0 0 1-1.79-1.79V58.22a1.8 1.8 0 0 1 1.79-1.8Z" style="fill:#1a1a1a;fill-rule:evenodd"/>
</svg>