<svg xmlns="http://www.w3.org/2000/svg" version="1.1" xmlns:xlink="http://www.w3.org/1999/xlink" xmlns:svgjs="http://svgjs.dev/svgjs" width="1500" height="250" viewBox="0 0 1500 250"><g transform="matrix(1,0,0,1,-0.9090909090909918,0.7385400711007435)"><svg viewBox="0 0 396 66" data-background-color="#14293a" preserveAspectRatio="xMidYMid meet" height="250" width="1500" xmlns="http://www.w3.org/2000/svg" xmlns:xlink="http://www.w3.org/1999/xlink"><g id="tight-bounds" transform="matrix(1,0,0,1,0.2400000000000091,-0.19497457877059787)"><svg viewBox="0 0 395.52 66.38994915754117" height="66.38994915754117" width="395.52"><g><svg viewBox="0 0 644.9715417468351 108.26159957684396" height="66.38994915754117" width="395.52"><g transform="matrix(1,0,0,1,0,14.962348421980607)"><svg viewBox="0 0 395.52 78.33690273288275" height="78.33690273288275" width="395.52"><g id="textblocktransform"><svg viewBox="0 0 395.52 78.33690273288275" height="78.33690273288275" width="395.52" id="textblock"><g><svg viewBox="0 0 395.52 78.33690273288275" height="78.33690273288275" width="395.52"><g transform="matrix(1,0,0,1,0,0)"><svg width="395.52" viewBox="2.55 -33.2 170.14 33.7" height="78.33690273288275" data-palette-color="#e9e4de"><path d="M18.75-33.2L21.4-33.2 21.4-4.15 21.9 0.2 19.35 0.5 18.85-2.15Q15.1 0.45 11.95 0.45L11.95 0.45Q7.5 0.45 5.03-2.85 2.55-6.15 2.55-11.83 2.55-17.5 5.3-20.78 8.05-24.05 12.8-24.05L12.8-24.05Q15.6-24.05 18.75-22.7L18.75-22.7 18.75-33.2ZM5.4-11.9Q5.4-7.5 7.13-4.83 8.85-2.15 12.1-2.15 15.35-2.15 18.75-5L18.75-5 18.75-20Q17.7-20.5 15.88-20.98 14.05-21.45 12.9-21.45L12.9-21.45Q9.35-21.45 7.38-18.88 5.4-16.3 5.4-11.9ZM36.95-21.25L31.15-21.25 31.15-23.75 39.6-23.75 39.6-2.5 45.4-2.5 45.4 0 30.75 0 30.75-2.5 36.95-2.5 36.95-21.25ZM38.05-28.55Q37.15-28.55 36.52-29.18 35.9-29.8 35.9-30.78 35.9-31.75 36.52-32.33 37.15-32.9 38.05-32.9 38.95-32.9 39.52-32.35 40.1-31.8 40.1-30.8 40.1-29.8 39.52-29.18 38.95-28.55 38.05-28.55ZM51.75-23.75L54.25-23.75 54.4-22.25Q56.9-24.05 58.25-24.05L58.25-24.05Q61.55-24.05 62.8-21.9L62.8-21.9Q65.59-24.05 67.7-24.05L67.7-24.05Q70.95-24.05 72.15-22.05 73.34-20.05 73.34-15.9L73.34-15.9 73.34 0 70.7 0 70.7-15.9Q70.7-18.75 70.09-20.13 69.5-21.5 67.8-21.5 66.09-21.5 63.6-19.9L63.6-19.9Q63.9-18.2 63.9-15.9L63.9-15.9 63.9-7.6 61.25-7.6 61.25-15.9Q61.25-18.75 60.65-20.1L60.65-20.1Q60-21.5 58.3-21.5 56.6-21.5 54.4-19.9L54.4-19.9 54.4 0 51.75 0 51.75-23.75ZM78.89-1.15L78.89-1.15 79.54-3.75Q84.49-2.1 87.19-2.1 89.89-2.1 91.37-3.28 92.84-4.45 92.84-6.4 92.84-8.35 91.67-9.28 90.49-10.2 86.79-11.05 83.09-11.9 81.24-13.5L81.24-13.5Q79.39-15 79.39-18 79.39-21 81.67-22.58 83.94-24.15 87.54-24.15 91.14-24.15 95.34-22.55L95.34-22.55 94.64-20.2Q90.39-21.6 87.79-21.6 85.19-21.6 83.69-20.7L83.69-20.7Q82.19-19.7 82.19-18 82.19-16.3 83.52-15.35 84.84-14.4 88.64-13.45 92.44-12.5 94.04-11.03 95.64-9.55 95.64-6.4 95.64-3.25 93.49-1.4L93.49-1.4Q91.39 0.45 87.49 0.45 83.59 0.45 78.89-1.15ZM108.69 0L103.74 0 100.09-32.75 102.94-32.75 106.29-2.5 106.84-2.5 111.24-18.3 113.89-18.3 118.09-2.5 118.69-2.5 122.04-32.75 124.89-32.75 121.24 0 116.19 0 112.59-14.1 112.44-14.1 108.69 0ZM128.34-11.85Q128.34-17.6 130.71-20.83 133.09-24.05 137.64-24.05 142.19-24.05 144.41-21.05 146.64-18.05 146.64-13.05L146.64-13.05 146.49-10.55 131.19-10.55Q131.44-6.8 133.19-4.48 134.94-2.15 138.01-2.15 141.09-2.15 145.24-3.6L145.24-3.6 145.99-1.1Q141.94 0.45 138.39 0.45L138.39 0.45Q133.49 0.45 130.91-2.83 128.34-6.1 128.34-11.85ZM137.84-21.5L137.84-21.5Q131.54-21.5 131.19-13.05L131.19-13.05 143.79-13.05Q143.79-21.5 137.84-21.5ZM156.34 0L153.84 0 153.84-33.2 156.49-33.2 156.49-21.45Q160.24-24.05 163.29-24.05L163.29-24.05Q167.79-24.05 170.24-20.98 172.69-17.9 172.69-12.2 172.69-6.5 169.94-3.03 167.19 0.45 162.44 0.45L162.44 0.45Q159.54 0.45 156.44-1L156.44-1 156.34 0ZM169.84-12.15Q169.84-16.55 168.11-19 166.39-21.45 163.14-21.45 159.89-21.45 156.49-18.6L156.49-18.6 156.49-3.6Q157.54-3.1 159.36-2.63 161.19-2.15 162.34-2.15L162.34-2.15Q165.84-2.15 167.84-4.95 169.84-7.75 169.84-12.15Z" opacity="1" transform="matrix(1,0,0,1,0,0)" fill="#fff" class="wordmark-text-0" data-fill-palette-color="primary" id="text-0"></path></svg></g></svg></g></svg></g></svg></g><g transform="matrix(1,0,0,1,414.013462649568,0)"><svg viewBox="0 0 230.95807909726713 108.26159957684396" height="108.26159957684396" width="230.95807909726713"><g><svg xmlns="http://www.w3.org/2000/svg" version="1.1" data-icon="project" data-container-transform="translate(0 34)" viewBox="0 34 128 60" x="0" y="0" height="108.26159957684396" width="230.95807909726713" class="icon-icon-0" data-fill-palette-color="accent" id="icon-0"><path d="M0 0v60h2v-60h-2z m126 0v60h2v-60h-2z m-120 8v8h36v-8h-36z m22 12v8h54v-8h-54z m46 12v8h18v-8h-18z m10 12v8h38v-8h-38z" transform="translate(0 34)" fill="#99abc1" data-fill-palette-color="accent"></path></svg></g></svg></g></svg></g><defs></defs></svg><rect width="395.52" height="66.38994915754117" fill="none" stroke="none" visibility="hidden"></rect></g></svg></g></svg>