<?xml version="1.0" encoding="UTF-8" standalone="no" ?>
<!DOCTYPE svg PUBLIC "-//W3C//DTD SVG 1.1//EN" "http://www.w3.org/Graphics/SVG/1.1/DTD/svg11.dtd">
<svg xmlns="http://www.w3.org/2000/svg" xmlns:xlink="http://www.w3.org/1999/xlink" version="1.1" width="1280" height="1024" viewBox="0 0 1280 1024" xml:space="preserve">
<desc>Created with Fabric.js 5.3.0</desc>
<defs>
</defs>
<g transform="matrix(1 0 0 1 640 512)" id="background-logo"  >
<rect style="stroke: none; stroke-width: 0; stroke-dasharray: none; stroke-linecap: butt; stroke-dashoffset: 0; stroke-linejoin: miter; stroke-miterlimit: 4; fill: rgb(255,255,255); fill-opacity: 0; fill-rule: nonzero; opacity: 1;"  paint-order="stroke"  x="-640" y="-512" rx="0" ry="0" width="1280" height="1024" />
</g>
<g transform="matrix(1.9211538461538462 0 0 1.9211538461538462 647.9166920375518 511.54939410171556)" id="tagline-4c4e9e10-2b31-4903-9358-505a1dd49857-logo"  >
<g style=""  paint-order="stroke"   >
		<g transform="matrix(1 0 0 1 0 0)" id="tagline-4c4e9e10-2b31-4903-9358-505a1dd49857-logo-path-0"  >
<linearGradient id="SVGID_666596" gradientUnits="userSpaceOnUse" gradientTransform="matrix(1 0 0 1 45.33000000000001 -473.04)"  x1="0" y1="0" x2="0" y2="742">
<stop offset="0%" style="stop-color:rgb(91,36,122);stop-opacity: 1"/>
<stop offset="100%" style="stop-color:rgb(27,206,223);stop-opacity: 1"/>
</linearGradient>
<path style="stroke: rgb(0,0,0); stroke-width: 28.565217391304348; stroke-dasharray: none; stroke-linecap: butt; stroke-dashoffset: 0; stroke-linejoin: miter; stroke-miterlimit: 4; fill: url(#SVGID_666596); fill-rule: nonzero; opacity: 1;"  paint-order="stroke"  transform=" translate(-248.675, 236.52)" d="M 290.39 0 L 290.39 0 L 68.98 0 Q 56.5 0 50.92 -5.58 Q 45.33 -11.17 45.33 -23.65 L 45.33 -23.65 L 45.33 -449.39 Q 45.33 -461.87 50.92 -467.46 Q 56.5 -473.04 68.98 -473.04 L 68.98 -473.04 L 290.39 -473.04 Q 372.52 -473.04 412.27 -440.19 Q 452.02 -407.34 452.02 -339.01 L 452.02 -339.01 L 452.02 -134.03 Q 452.02 -65.7 412.27 -32.85 Q 372.52 0 290.39 0 Z M 272.66 -347.55 L 194.47 -347.55 L 194.47 -124.17 L 272.66 -124.17 Q 288.42 -124.17 295.98 -132.06 Q 303.53 -139.94 303.53 -156.37 L 303.53 -156.37 L 303.53 -316.02 Q 303.53 -332.44 295.98 -340 Q 288.42 -347.55 272.66 -347.55 L 272.66 -347.55 Z" stroke-linecap="round" />
</g>
</g>
</g>
<g transform="matrix(1.9211538461538462 0 0 1.9211538461538462 641.060559240076 498.4170076127247)" id="text-logo"  >
<g style=""  paint-order="stroke"   >
		<g transform="matrix(1 0 0 1 0 0)" id="text-logo-path-0"  >
<linearGradient id="SVGID_666597" gradientUnits="userSpaceOnUse" gradientTransform="matrix(1 0 0 1 6.980000000000018 -97.63)"  x1="0" y1="0" x2="0" y2="147">
<stop offset="0%" style="stop-color:rgb(23,234,217);stop-opacity: 1"/>
<stop offset="100%" style="stop-color:rgb(96,120,234);stop-opacity: 1"/>
</linearGradient>
<path style="stroke: rgb(0,0,0); stroke-width: 35.45454545454547; stroke-dasharray: none; stroke-linecap: butt; stroke-dashoffset: 0; stroke-linejoin: miter; stroke-miterlimit: 4; fill: url(#SVGID_666597); fill-rule: nonzero; opacity: 1;"  paint-order="stroke"  transform=" translate(-304.765, 48.245)" d="M 6.98 -23.17 L 6.98 -23.17 L 6.98 -45.51 Q 6.98 -51.86 9.3 -56.27 Q 11.62 -60.68 15.08 -63.44 Q 18.54 -66.21 22.6 -67.41 Q 26.66 -68.62 30.09 -68.62 L 30.09 -68.62 L 59.86 -68.62 L 59.86 -52.11 L 30.21 -52.11 Q 26.91 -52.11 25.2 -50.43 Q 23.49 -48.75 23.49 -45.51 L 23.49 -45.51 L 23.49 -23.3 Q 23.49 -19.93 25.17 -18.22 Q 26.85 -16.5 30.09 -16.5 L 30.09 -16.5 L 59.86 -16.5 Q 63.22 -16.5 64.87 -18.22 Q 66.52 -19.93 66.52 -23.17 L 66.52 -23.17 L 66.52 -97.63 L 83.03 -97.63 L 83.03 -23.17 Q 83.03 -18.92 81.95 -15.52 Q 80.87 -12.12 79.09 -9.55 Q 77.31 -6.98 74.97 -5.17 Q 72.62 -3.36 70.05 -2.22 Q 67.48 -1.08 64.84 -0.54 Q 62.21 0 59.86 0 L 59.86 0 L 30.09 0 Q 25.83 0 22.47 -1.08 Q 19.11 -2.16 16.54 -3.97 Q 13.96 -5.78 12.16 -8.13 Q 10.35 -10.47 9.2 -13.04 Q 8.06 -15.62 7.52 -18.25 Q 6.98 -20.88 6.98 -23.17 Z M 113.97 0 L 97.46 0 L 97.46 -68.62 L 113.97 -68.62 L 113.97 0 Z M 113.97 -82.71 L 97.46 -82.71 L 97.46 -97.63 L 113.97 -97.63 L 113.97 -82.71 Z M 144.72 0 L 128.21 0 L 128.21 -60.43 Q 128.21 -62.14 128.85 -63.64 Q 129.48 -65.13 130.63 -66.24 Q 131.77 -67.35 133.29 -67.98 Q 134.81 -68.62 136.53 -68.62 L 136.53 -68.62 L 166.3 -68.62 Q 169.73 -68.62 173.66 -67.41 Q 177.6 -66.21 181.15 -63.54 L 181.15 -63.54 L 181.15 -68.62 L 203.5 -68.62 Q 205.84 -68.62 208.45 -68.08 Q 211.05 -67.54 213.62 -66.4 Q 216.19 -65.25 218.54 -63.44 Q 220.89 -61.64 222.67 -59.06 Q 224.44 -56.49 225.52 -53.13 Q 226.6 -49.77 226.6 -45.51 L 226.6 -45.51 L 226.6 0 L 210.1 0 L 210.1 -45.51 Q 210.1 -48.75 208.48 -50.43 Q 206.86 -52.11 203.5 -52.11 L 203.5 -52.11 L 188.64 -52.11 Q 189.47 -49.07 189.47 -45.51 L 189.47 -45.51 L 189.47 0 L 172.96 0 L 172.96 -45.51 Q 172.96 -48.75 171.25 -50.43 Q 169.54 -52.11 166.17 -52.11 L 166.17 -52.11 L 144.72 -52.11 L 144.72 0 Z M 237.86 -48.75 L 237.86 -48.75 Q 237.86 -54.27 239.83 -58.05 Q 241.8 -61.83 244.78 -64.17 Q 247.77 -66.52 251.26 -67.57 Q 254.75 -68.62 257.8 -68.62 L 257.8 -68.62 L 298.36 -68.62 L 298.36 -52.11 L 257.92 -52.11 Q 256.65 -52.11 255.92 -51.83 Q 255.19 -51.54 254.84 -51.07 Q 254.49 -50.59 254.43 -50.05 Q 254.37 -49.51 254.37 -49 L 254.37 -49 Q 254.43 -47.99 254.75 -47.42 Q 255.07 -46.85 255.54 -46.59 Q 256.02 -46.34 256.62 -46.31 Q 257.22 -46.27 257.8 -46.27 L 257.8 -46.27 L 283.38 -46.27 Q 289.72 -46.27 294.17 -43.99 Q 298.61 -41.7 301.34 -38.24 Q 304.07 -34.79 305.31 -30.72 Q 306.55 -26.66 306.55 -23.17 L 306.55 -23.17 Q 306.55 -18.92 305.47 -15.52 Q 304.39 -12.12 302.61 -9.55 Q 300.83 -6.98 298.48 -5.17 Q 296.14 -3.36 293.56 -2.22 Q 290.99 -1.08 288.36 -0.54 Q 285.73 0 283.38 0 L 283.38 0 L 238.69 0 L 238.69 -16.5 L 283.25 -16.5 Q 286.61 -16.5 288.33 -18.22 Q 290.04 -19.93 290.04 -23.17 L 290.04 -23.17 Q 289.72 -29.77 283.38 -29.77 L 283.38 -29.77 L 257.8 -29.77 Q 252.34 -29.77 248.53 -31.67 Q 244.72 -33.58 242.34 -36.44 Q 239.96 -39.29 238.91 -42.59 Q 237.86 -45.89 237.86 -48.75 Z M 328.66 -5.71 L 313.3 -91.03 L 330.06 -91.03 L 340.98 -30.91 L 367 -72.43 Q 368.08 -74.27 369.95 -75.28 Q 371.83 -76.3 373.98 -76.3 L 373.98 -76.3 Q 376.14 -76.3 377.98 -75.28 Q 379.82 -74.27 381.03 -72.43 L 381.03 -72.43 L 406.93 -30.91 L 417.85 -91.03 L 434.6 -91.03 L 419.37 -5.71 Q 418.86 -3.17 417.09 -1.33 Q 415.31 0.51 412.77 1.02 L 412.77 1.02 Q 412.01 1.14 411.18 1.14 L 411.18 1.14 Q 409.34 1.14 407.82 0.44 L 407.82 0.44 Q 405.53 -0.57 404.2 -2.73 L 404.2 -2.73 L 373.98 -52.37 L 343.71 -2.73 Q 342.63 -0.89 340.75 0.13 Q 338.88 1.14 336.72 1.14 L 336.72 1.14 Q 333.74 1.14 331.46 -0.76 Q 329.17 -2.67 328.66 -5.71 L 328.66 -5.71 Z M 442.12 -22.72 L 442.12 -22.72 L 442.12 -45.89 Q 442.12 -49.32 443.33 -53.29 Q 444.53 -57.26 447.23 -60.65 Q 449.93 -64.05 454.28 -66.33 Q 458.63 -68.62 464.85 -68.62 L 464.85 -68.62 L 494.62 -68.62 Q 498.04 -68.62 502.01 -67.41 Q 505.98 -66.21 509.38 -63.51 Q 512.77 -60.81 515.06 -56.46 Q 517.34 -52.11 517.34 -45.89 L 517.34 -45.89 Q 517.34 -42.47 516.14 -38.5 Q 514.93 -34.53 512.23 -31.14 Q 509.53 -27.74 505.19 -25.45 Q 500.84 -23.17 494.62 -23.17 L 494.62 -23.17 L 464.85 -23.17 L 464.85 -38.85 L 494.62 -38.85 Q 497.98 -38.85 499.82 -40.91 Q 501.66 -42.97 501.66 -46.02 L 501.66 -46.02 Q 501.66 -49.26 499.6 -51.1 Q 497.54 -52.94 494.62 -52.94 L 494.62 -52.94 L 464.85 -52.94 Q 461.48 -52.94 459.64 -50.88 Q 457.8 -48.81 457.8 -45.77 L 457.8 -45.77 L 457.8 -22.72 Q 457.8 -19.42 459.86 -17.58 Q 461.93 -15.74 464.97 -15.74 L 464.97 -15.74 L 494.62 -15.74 L 494.62 0 L 464.85 0 Q 461.42 0 457.45 -1.21 Q 453.48 -2.41 450.09 -5.11 Q 446.69 -7.81 444.41 -12.16 Q 442.12 -16.5 442.12 -22.72 Z M 526.51 -23.17 L 526.51 -23.17 L 526.51 -97.63 L 543.01 -97.63 L 543.01 -23.17 Q 543.01 -20.12 544.92 -18.31 Q 546.82 -16.5 549.68 -16.5 L 549.68 -16.5 L 579.45 -16.5 Q 582.56 -16.5 584.3 -18.34 Q 586.05 -20.19 586.05 -23.17 L 586.05 -23.17 L 586.05 -45.51 Q 586.05 -48.62 584.21 -50.37 Q 582.37 -52.11 579.45 -52.11 L 579.45 -52.11 L 549.68 -52.11 L 549.68 -68.62 L 579.45 -68.62 Q 581.8 -68.62 584.4 -68.08 Q 587 -67.54 589.57 -66.4 Q 592.14 -65.25 594.49 -63.44 Q 596.84 -61.64 598.62 -59.06 Q 600.4 -56.49 601.47 -53.13 Q 602.55 -49.77 602.55 -45.51 L 602.55 -45.51 L 602.55 -23.17 Q 602.55 -20.82 602.01 -18.22 Q 601.47 -15.62 600.33 -13.04 Q 599.19 -10.47 597.38 -8.13 Q 595.57 -5.78 593 -3.97 Q 590.43 -2.16 587.07 -1.08 Q 583.7 0 579.45 0 L 579.45 0 L 549.68 0 Q 547.33 0 544.73 -0.54 Q 542.12 -1.08 539.55 -2.22 Q 536.98 -3.36 534.63 -5.17 Q 532.29 -6.98 530.48 -9.55 Q 528.67 -12.12 527.59 -15.52 Q 526.51 -18.92 526.51 -23.17 Z" stroke-linecap="round" />
</g>
</g>
</g>
</svg>